<svg width="148" height="148" viewBox="0 0 148 148" fill="none" xmlns="http://www.w3.org/2000/svg">
<g clip-path="url(#clip0)">
<path d="M84.4894 0.733154C65.2905 0.733154 48.0813 9.24481 36.4353 22.6973C38.061 23.5191 39.5862 24.6106 40.9445 25.9727L49.1339 34.184C57.6426 24.1851 70.3244 17.8415 84.4894 17.8415C110.109 17.8415 130.877 38.5923 130.877 64.1898C130.877 78.3978 124.479 91.1126 114.404 99.6147L120.982 106.211C122.933 108.167 124.328 110.472 125.166 112.926C139.121 101.286 148 83.774 148 64.1898C148 29.1438 119.565 0.733154 84.4894 0.733154V0.733154Z" fill="#00837D"/>
<path d="M123.029 104.17L113.584 94.6997C109.85 90.9554 104.887 88.8931 99.6106 88.8931C94.334 88.8931 89.3712 90.9553 85.6364 94.7002L77.1054 103.259L43.8942 69.9721L52.4359 61.4023C60.135 53.6824 60.135 41.1214 52.4359 33.4018L42.9914 23.9319C39.1323 20.0624 34.0042 17.9314 28.5512 17.9314C23.0982 17.9314 17.9701 20.0624 14.111 23.9319C14.0318 24.0114 13.9572 24.0952 13.8878 24.1834L9.26359 30.0483C4.84949 35.6468 1.86716 42.3043 0.638613 49.3015C-0.60034 56.3586 -0.029427 63.6339 2.2892 70.3412C3.96928 75.201 6.08238 78.9295 8.56953 81.4236L65.7392 138.732C67.7109 140.709 70.4788 142.467 73.9661 143.956C79.1699 146.178 84.6964 147.268 90.215 147.267C99.4034 147.267 108.568 144.247 116.166 138.41L122.743 133.357C122.843 133.28 122.939 133.196 123.028 133.106C130.985 125.128 130.985 112.147 123.029 104.17V104.17ZM119.063 128.893L112.644 133.824C102.137 141.897 88.1857 143.742 76.2365 138.639C73.4336 137.442 71.2792 136.099 69.8324 134.649L12.6628 77.3405C10.7977 75.4702 9.14565 72.4797 7.75349 68.4518C3.66778 56.6329 5.92946 43.6147 13.8037 33.6276L18.319 27.9008C21.0718 25.1989 24.6993 23.7128 28.5512 23.7128C32.4568 23.7128 36.1312 25.2405 38.8976 28.0144L48.3421 37.4844C53.796 42.953 53.796 51.8511 48.3415 57.3203L37.7641 67.9324C36.6394 69.0609 36.6397 70.887 37.765 72.0149L75.0597 109.395C75.6019 109.939 76.3388 110.244 77.1066 110.244C77.8746 110.244 78.6112 109.938 79.1532 109.394L89.7299 98.7825C92.3718 96.1335 95.8805 94.6748 99.6101 94.6748C103.34 94.6748 106.848 96.1335 109.49 98.7825L118.935 108.252C124.603 113.936 124.646 123.157 119.063 128.893V128.893Z" fill="#0AB48B"/>
<path d="M104.355 64.0868H104.031C104.066 58.0033 104.084 51.5016 104.009 50.5976C103.84 48.558 102.615 46.8955 100.888 46.3628C99.176 45.8343 97.3583 46.4989 96.0254 48.1411C94.5861 49.9149 87.9427 61.9419 85.9409 65.5856C85.4489 66.4812 85.4662 67.5698 85.9866 68.4494C86.5069 69.3288 87.4527 69.8682 88.4743 69.8682H98.2105C98.1986 71.4896 98.1862 73.0439 98.1743 74.4482C98.1607 76.0448 99.4436 77.3499 101.04 77.3635C101.049 77.3638 101.057 77.3638 101.066 77.3638C102.65 77.3638 103.942 76.0858 103.955 74.4979C103.963 73.631 103.977 71.9521 103.992 69.8682H104.355C105.951 69.8682 107.245 68.574 107.245 66.9775C107.246 65.381 105.951 64.0868 104.355 64.0868V64.0868ZM98.2483 64.0868H93.3766C95.1836 60.8414 96.9452 57.7278 98.2807 55.4312C98.2795 57.8033 98.2668 60.8882 98.2483 64.0868V64.0868Z" fill="#0AB48B"/>
<path d="M81.6478 72.3887C79.1057 72.4207 76.4087 72.4418 74.1722 72.4462C75.5762 70.5606 77.5294 67.8809 80.1704 64.0915C81.7871 61.7717 82.8414 59.5794 83.3039 57.5756C83.4123 57.1177 83.5028 56.2458 83.5031 55.9432C83.5083 50.7659 79.3034 46.5542 74.1415 46.5542C69.6771 46.5542 65.8137 49.7397 64.9552 54.129C64.6488 55.6957 65.6703 57.2142 67.2374 57.5206C68.8038 57.8268 70.3226 56.8052 70.629 55.2384C70.958 53.5563 72.4351 52.3356 74.1415 52.3356C76.0635 52.3356 77.6364 53.8697 77.7182 55.7865L77.6396 56.404C77.3242 57.6579 76.5804 59.1316 75.427 60.7863C71.4214 66.5338 69.0311 69.6769 67.7473 71.3656C66.1606 73.4519 65.4365 74.404 65.929 76.0026C66.2184 76.9418 66.9295 77.663 67.88 77.981C68.2665 78.1105 68.6371 78.2345 73.5538 78.2345C75.4837 78.2345 78.1145 78.2154 81.7204 78.1698C83.3166 78.1498 84.5946 76.8392 84.5743 75.2429C84.5547 73.6464 83.2391 72.3725 81.6478 72.3887V72.3887Z" fill="#0AB48B"/>
</g>
<defs>
<clipPath id="clip0">
<rect width="148" height="148" fill="white"/>
</clipPath>
</defs>
</svg>
