<svg width="148" height="148" viewBox="0 0 148 148" fill="none" xmlns="http://www.w3.org/2000/svg">
<path d="M113.301 0C98.1925 0 85.5234 10.4421 82.1215 24.5012C88.8959 32.216 93.0047 42.3361 93.0047 53.4167L93.0128 56.9095C98.5408 61.4272 105.605 64.1372 113.302 64.1372C131.018 64.1372 145.38 49.7795 145.38 32.0686C145.38 14.3577 131.018 0 113.301 0Z" fill="#00837D"/>
<path d="M124.313 22.3245C123.028 21.3776 121.219 21.6513 120.271 22.9368L111.376 35.0086L106.09 29.5046C104.984 28.3532 103.154 28.3168 102.003 29.4222C100.852 30.5281 100.815 32.3579 101.921 33.5095L109.584 41.4879C110.13 42.0571 110.884 42.3762 111.668 42.3762C111.731 42.3762 111.793 42.3742 111.856 42.3702C112.707 42.3147 113.489 41.8866 113.995 41.2003L124.926 26.3665C125.873 25.0813 125.598 23.2715 124.313 22.3245V22.3245Z" fill="white"/>
<path d="M95.9823 90.6762L95.8953 53.4166C95.8953 27.6669 74.9735 6.71826 49.2574 6.71826C23.5415 6.71826 2.61975 27.6669 2.61975 53.4232L2.70705 90.8054C2.7267 99.1587 6.40213 106.851 12.7086 112.064C9.18841 115.484 6.99789 120.269 6.99789 125.556V145.109C6.99789 146.706 8.29202 148 9.88852 148H88.7769C90.3731 148 91.6675 146.706 91.6675 145.109V125.556C91.6675 120.273 89.4801 115.491 85.9643 112.072C92.3066 106.818 96.0017 99.0269 95.9823 90.6762V90.6762ZM85.8859 142.219H12.7789V125.556C12.7789 118.374 18.6121 112.531 25.782 112.531H35.2954C37.5079 112.531 39.829 112.46 41.7533 111.616C44.2835 110.507 45.6771 108.225 45.6771 105.191V98.4025C45.6771 96.806 44.3829 95.5119 42.7864 95.5119C25.4514 95.5119 24.0737 86.403 24.0737 74.4948C24.0737 73.6004 23.6597 72.7566 22.9527 72.2091C22.2459 71.6619 21.3253 71.4723 20.4592 71.6963C20.2274 71.7565 19.9866 71.7868 19.7435 71.7868C18.9272 71.7868 18.1771 71.4518 17.6308 70.8436C17.0859 70.2363 16.835 69.4474 16.9243 68.6219C17.0659 67.313 18.1655 66.2391 19.4816 66.1244C19.751 66.1007 20.0176 66.1134 20.2751 66.1622C21.1203 66.3209 21.9933 66.0963 22.6558 65.5471C23.3184 64.9982 23.7017 64.1822 23.7017 63.3216V51.412H39.6316C47.1845 51.412 54.4854 48.3398 59.7894 43.0531C63.6336 47.5703 69.1035 50.4991 74.9628 51.2313V63.3213C74.9628 64.1819 75.3461 64.9973 76.0084 65.5465C76.6706 66.0957 77.5442 66.3209 78.3885 66.1619C78.5625 66.1293 78.7418 66.1125 78.921 66.1125C79.7379 66.1125 80.4889 66.4481 81.0349 67.0575C81.5798 67.6657 81.8301 68.4554 81.7396 69.2818C81.5983 70.571 80.5169 71.6414 79.2242 71.7712C78.8762 71.8065 78.5331 71.781 78.2061 71.6963C77.3395 71.4723 76.4191 71.6617 75.7121 72.2088C75.005 72.7563 74.5908 73.6001 74.5908 74.4948C74.5908 88.1252 71.6089 95.5119 55.8781 95.5119C54.2816 95.5119 52.9874 96.806 52.9874 98.4025V105.191C52.9874 108.225 54.381 110.507 56.9112 111.616C58.8355 112.46 61.1566 112.531 63.3691 112.531H72.8825C80.0527 112.531 85.8857 118.374 85.8857 125.556V142.219H85.8859ZM72.8827 106.75H63.3694C62.2649 106.75 60.2085 106.75 59.2332 106.322C58.9635 106.204 58.769 106.118 58.769 105.191V101.208C67.1339 100.696 72.9212 97.8776 76.4093 92.6357C79.3404 88.231 80.1428 82.6856 80.3252 77.4548C84.0938 76.8385 87.0668 73.7438 87.4868 69.912C87.755 67.4668 86.9725 65.0199 85.3402 63.1988C84.1192 61.8367 82.5036 60.9091 80.7444 60.5272V48.5213C80.7444 46.9248 79.45 45.6307 77.8538 45.6307C72.3318 45.6307 67.0243 43.0187 63.6556 38.6435L62.2143 36.7715C61.6671 36.0607 60.821 35.6445 59.9241 35.6445C59.0271 35.6445 58.181 36.0607 57.6338 36.7715C53.3629 42.3186 46.633 45.6304 39.6319 45.6304H20.811C19.2145 45.6304 17.9204 46.9245 17.9204 48.521V60.5238C14.3421 61.293 11.5781 64.29 11.1766 67.9992C10.9121 70.4424 11.6966 72.8864 13.3284 74.7046C14.6424 76.1687 16.4129 77.1301 18.3277 77.4501C18.4693 82.5451 19.133 87.9694 21.9664 92.4129C25.4048 97.8045 31.2864 100.696 39.8955 101.21V105.191C39.8955 106.118 39.7007 106.203 39.4313 106.322C38.456 106.749 36.3999 106.749 35.2951 106.749H25.7823C22.881 106.749 20.1312 107.411 17.6753 108.592C11.9099 104.486 8.50506 97.9447 8.4883 90.7918L8.401 53.4163C8.401 30.8547 26.729 12.4992 49.2574 12.4992C71.7858 12.4992 90.1138 30.8547 90.1138 53.423L90.2008 90.6892C90.2175 97.836 86.795 104.466 81.0025 108.598C78.5438 107.414 75.7893 106.75 72.8827 106.75V106.75Z" fill="#0AB48B"/>
<path d="M40.378 69.3266V64.9565C40.378 63.3601 39.0838 62.0659 37.4873 62.0659H34.7858C33.1893 62.0659 31.8951 63.3601 31.8951 64.9565C31.8951 66.4894 33.0884 67.7437 34.5967 67.8411V69.3266C34.5967 70.9231 35.8909 72.2172 37.4873 72.2172C39.0838 72.2172 40.378 70.9231 40.378 69.3266V69.3266Z" fill="#0AB48B"/>
<path d="M61.1775 72.2172C62.774 72.2172 64.0681 70.9231 64.0681 69.3266V67.8411C65.5764 67.7437 66.7697 66.4894 66.7697 64.9565C66.7697 63.3601 65.4756 62.0659 63.8791 62.0659H61.1775C59.581 62.0659 58.2869 63.3601 58.2869 64.9565V69.3266C58.2869 70.9231 59.581 72.2172 61.1775 72.2172V72.2172Z" fill="#0AB48B"/>
<path d="M58.3103 84.2473C59.4382 83.1176 59.4371 81.2876 58.3074 80.1594C57.1777 79.0314 55.3477 79.0326 54.2195 80.1623C52.9141 81.4694 51.1785 82.1894 49.3329 82.1894C47.4869 82.1894 45.7514 81.4694 44.4457 80.162C43.3175 79.0326 41.4874 79.0309 40.3578 80.1594C39.2281 81.2873 39.227 83.1176 40.3552 84.2473C42.7529 86.6485 45.9413 87.9707 49.3329 87.9707C52.7244 87.9707 55.9125 86.6485 58.3103 84.2473V84.2473Z" fill="#0AB48B"/>
<path d="M64.6873 118.554C56.4996 126.741 43.1784 126.741 34.991 118.554C33.8622 117.425 32.0319 117.425 30.9031 118.554C29.7743 119.682 29.7743 121.513 30.9031 122.642C36.1239 127.862 42.9813 130.472 49.839 130.472C56.6967 130.472 63.5545 127.862 68.7749 122.642C69.9037 121.513 69.904 119.682 68.7749 118.554C67.6461 117.425 65.8158 117.425 64.6873 118.554Z" fill="#0AB48B"/>
</svg>
