<svg width="148" height="148" viewBox="0 0 148 148" fill="none" xmlns="http://www.w3.org/2000/svg">
<path d="M25.0337 112.613C24.4385 112.613 23.8965 112.208 23.7471 111.531V101.338C38.4971 102.346 35.4047 83.166 35.4047 83.166H22.0804C22.0804 83.166 22.0801 83.166 22.0801 83.1657V69.3774H46.8629C46.8629 69.3774 46.8631 69.3774 46.8631 69.3777V84.5023C46.8631 85.1123 46.829 92.5128 46.7657 93.1366C45.7959 102.697 38.4349 110.382 28.9803 112.101C27.5538 112.36 26.2128 112.549 25.106 112.611C25.0782 112.613 25.056 112.613 25.0337 112.613V112.613Z" fill="#00837D"/>
<path d="M59.4954 112.613C58.9002 112.613 58.3582 112.208 58.2088 111.531V101.338C72.9588 102.346 69.8664 83.166 69.8664 83.166H56.542C56.542 83.166 56.5417 83.166 56.5417 83.1657V69.3774H81.3245C81.3245 69.3774 81.3248 69.3774 81.3248 69.3777V84.5023C81.3248 85.1123 81.2907 92.5128 81.2274 93.1366C80.2576 102.697 72.8966 110.382 63.442 112.101C62.0154 112.36 60.6745 112.549 59.5677 112.611C59.5402 112.613 59.5176 112.613 59.4954 112.613V112.613Z" fill="#00837D"/>
<path d="M136.937 6.55518H55.6581C49.5577 6.55518 44.5948 11.5256 44.5948 17.6355V46.3279H11.063C4.96291 46.3279 0 51.2983 0 57.4082V121.183C0 127.293 4.96291 132.263 11.063 132.263H12.8072C16.1557 132.263 19.1848 134.38 20.3448 137.53L21.0894 139.553C21.4002 140.397 22.0861 141.049 22.9452 141.316C23.2262 141.403 23.5149 141.445 23.802 141.445C24.3937 141.445 24.9785 141.264 25.4725 140.914L35.6067 133.738C36.9699 132.773 38.5725 132.263 40.241 132.263H92.3416C98.442 132.263 103.405 127.293 103.405 121.183V89.5999H107.758C109.427 89.5999 111.03 90.1101 112.393 91.0753L122.527 98.2504C123.021 98.6005 123.606 98.782 124.197 98.782C124.484 98.782 124.773 98.7392 125.054 98.6522C125.913 98.3854 126.599 97.7339 126.91 96.8898L127.654 94.8669C128.814 91.7167 131.843 89.5999 135.192 89.5999H136.936C143.037 89.5999 147.999 84.6295 147.999 78.5196V17.6355C148 11.5256 143.037 6.55518 136.937 6.55518V6.55518ZM97.6242 121.183C97.6242 124.104 95.2548 126.482 92.3422 126.482H40.2415C37.3694 126.482 34.6118 127.359 32.2666 129.02L25.1334 134.07C22.8039 129.474 18.0326 126.482 12.8075 126.482H11.0633C8.15098 126.482 5.78154 124.104 5.78154 121.183V57.4082C5.78154 54.4864 8.15098 52.1091 11.0633 52.1091H92.3422C95.2548 52.1091 97.6242 54.4864 97.6242 57.4082V121.183ZM142.219 78.5196C142.219 81.4414 139.849 83.8187 136.937 83.8187H135.193C129.968 83.8187 125.196 86.8111 122.867 91.4072L115.734 86.3569C113.389 84.6966 110.631 83.8187 107.759 83.8187H103.405V57.4082C103.405 55.49 102.916 53.6842 102.056 52.1091H122.423C124.02 52.1091 125.314 50.8147 125.314 49.2185C125.314 47.6223 124.02 46.3279 122.423 46.3279H50.3758V17.6355C50.3758 14.7137 52.7452 12.3364 55.6578 12.3364H136.937C139.849 12.3364 142.219 14.7134 142.219 17.6355V78.5196Z" fill="#0AB48B"/>
<path d="M122.424 28.1128H70.1711C68.5749 28.1128 67.2805 29.4072 67.2805 31.0034C67.2805 32.5996 68.5749 33.894 70.1711 33.894H122.424C124.02 33.894 125.314 32.5996 125.314 31.0034C125.314 29.4072 124.02 28.1128 122.424 28.1128Z" fill="#0AB48B"/>
</svg>
