<svg width="148" height="148" viewBox="0 0 148 148" fill="none" xmlns="http://www.w3.org/2000/svg">
<path fill-rule="evenodd" clip-rule="evenodd" d="M5.69707 142.307C14.6528 143.602 26.7628 141.07 36.0625 136.391C45.5016 131.647 52.0482 122.47 52.3104 113.604L34.3992 95.6843C25.5256 95.9546 16.3487 102.493 11.6046 111.941C6.93426 121.233 4.40236 133.351 5.69707 142.307V142.307Z" fill="#00837D"/>
<path fill-rule="evenodd" clip-rule="evenodd" d="M109.452 4.4709C114.238 19.9407 128.052 33.7636 143.521 38.5407C143.923 36.517 144.234 34.4603 144.464 32.379C145.135 26.2581 145.291 19.9164 144.882 13.3694C144.415 5.93761 142.055 3.5777 134.631 3.11087C128.077 2.70936 121.735 2.85678 115.614 3.52885C113.533 3.75808 111.485 4.07749 109.452 4.4709V4.4709Z" fill="#00837D"/>
<path d="M147.767 13.188C147.208 4.29793 143.697 0.784663 134.808 0.225616C128.167 -0.181383 121.603 -0.0365632 115.297 0.655452C104.774 1.81517 94.4448 5.18044 84.5975 10.6576C75.9115 15.489 67.5524 21.9914 59.7335 29.9852C30.8631 24.4317 14.7311 40.1859 0.685009 56.8509C-0.118006 57.804 -0.220045 59.1646 0.43208 60.2266C1.08392 61.2886 2.34249 61.8127 3.55713 61.528C12.1466 59.5083 24.7839 61.2542 32.4564 68.2336C28.914 75.0173 26.1098 81.3877 23.9511 86.8649C23.5293 87.9356 23.7825 89.1545 24.5963 89.9685L58.0261 123.407C58.5787 123.96 59.3179 124.254 60.0709 124.254C60.427 124.254 60.7863 124.188 61.1303 124.053C66.6092 121.893 72.981 119.088 79.7667 115.544C86.7514 123.219 88.4935 135.857 86.4675 144.446C86.181 145.659 86.7051 146.92 87.7677 147.572C88.234 147.859 88.7583 148 89.2801 148C89.9467 148 90.6098 147.77 91.1442 147.319C107.808 133.266 123.562 117.128 118.008 88.2685C126.002 80.4488 132.504 72.0886 137.336 63.4011C142.812 53.5524 146.178 43.2216 147.338 32.6946C148.035 26.3421 148.179 19.7795 147.767 13.188V13.188ZM9.98878 54.9622C21.4787 42.279 34.4073 32.4226 55.001 35.0767C46.9408 44.1885 40.4438 53.8652 35.2791 63.0314C28.261 57.2487 18.5881 54.7948 9.98878 54.9622V54.9622ZM60.7664 117.972L30.0324 87.2294C31.2467 84.2408 32.5657 81.2293 33.9833 78.2161L69.7845 114.019C66.7696 115.437 63.7564 116.757 60.7664 117.972V117.972ZM93.0367 138.009C93.2099 129.414 90.7543 119.74 84.9687 112.721C94.1331 107.557 103.807 101.06 112.917 93.0014C115.57 113.584 105.716 126.515 93.0367 138.009V138.009ZM141.591 32.0624C137.668 67.6682 107.107 95.0367 75.2681 111.326L58.013 94.0703L74.8798 77.2029C76.0086 76.0742 76.0086 74.2438 74.8798 73.115C73.7513 71.9862 71.9207 71.9862 70.7919 73.115L53.9251 89.9824L36.6753 72.732C52.9631 40.8901 80.3295 10.3255 115.93 6.4023C121.908 5.74584 128.14 5.60941 134.45 5.99588C140.422 6.37166 141.621 7.57185 141.997 13.55C142.389 19.8108 142.252 26.0398 141.591 32.0624V32.0624Z" fill="#0AB48B"/>
<path d="M98.035 28.7466C92.3699 28.7466 87.0419 30.9547 83.0326 34.964C74.7625 43.2344 74.7625 56.6908 83.0338 64.9621C87.1697 69.0933 92.6017 71.1587 98.0344 71.1587C103.467 71.1587 108.901 69.0928 113.037 64.9609C121.307 56.6908 121.307 43.2344 113.037 34.9643C109.027 30.9547 103.7 28.7466 98.035 28.7466V28.7466ZM108.95 60.8718C102.931 66.884 93.1379 66.8837 87.1208 60.873C81.1046 54.857 81.1046 45.0682 87.1208 39.0519C90.0383 36.1344 93.9144 34.5275 98.035 34.5275C102.155 34.5275 106.031 36.1344 108.949 39.0519C114.965 45.0685 114.965 54.8573 108.95 60.8718Z" fill="#0AB48B"/>
</svg>
