<svg width="148" height="148" viewBox="0 0 148 148" fill="none" xmlns="http://www.w3.org/2000/svg">
<path d="M111.958 32.3843V8.78924C111.958 3.94281 108.016 0 103.169 0H8.78923C3.94281 0 0 3.94281 0 8.78924V32.384C0 36.2181 2.46802 39.4868 5.89861 40.685V47.6783C2.46802 48.8764 0 52.1449 0 55.9793V79.574C0 83.4084 2.46802 86.6768 5.89861 87.875V94.868C2.46802 96.0662 0 99.3346 0 103.169V126.764C0 131.61 3.94281 135.553 8.78923 135.553H94.5466C96.1428 135.553 97.4372 134.259 97.4372 132.662C97.4372 131.066 96.1428 129.772 94.5466 129.772H8.78923C7.13059 129.772 5.78125 128.422 5.78125 126.764V103.169C5.78125 101.51 7.13059 100.161 8.78923 100.161H97.4198C99.016 100.161 100.31 98.8666 100.31 97.2701C100.31 95.6736 99.016 94.3795 97.4198 94.3795H11.6799V88.3632H100.278V93.5932C100.278 95.1897 101.573 96.4839 103.169 96.4839C104.765 96.4839 106.06 95.1897 106.06 93.5932V87.875C109.491 86.6768 111.958 83.4084 111.958 79.574V55.9793C111.958 52.1449 109.491 48.8764 106.06 47.6783V40.6853C109.491 39.4871 111.958 36.2184 111.958 32.3843V32.3843ZM5.78125 8.78924C5.78125 7.13059 7.13088 5.78125 8.78923 5.78125H103.169C104.828 5.78125 106.177 7.13059 106.177 8.78924V32.384C106.177 34.0426 104.828 35.3919 103.169 35.3919H8.78923C7.13059 35.3919 5.78125 34.0426 5.78125 32.384V8.78924ZM11.6799 47.1897V41.1735H100.278V47.1897H11.6799ZM106.177 79.574C106.177 81.2326 104.828 82.582 103.169 82.582H8.78923C7.13059 82.582 5.78125 81.2326 5.78125 79.574V55.9793C5.78125 54.3206 7.13059 52.9713 8.78923 52.9713H103.169C104.828 52.9713 106.177 54.3206 106.177 55.9793V79.574Z" fill="#0AB48B"/>
<path d="M14.6881 29.376H97.2704C101.075 29.2462 101.123 23.7445 97.2704 23.5947H14.6881C10.8832 23.7245 10.8355 29.2265 14.6881 29.376V29.376Z" fill="#0AB48B"/>
<path d="M14.6901 17.5786C16.2866 17.5786 17.5807 16.2845 17.5807 14.688C17.4391 10.8576 11.9385 10.8582 11.7983 14.688C11.7983 16.2845 13.0936 17.5786 14.6901 17.5786Z" fill="#0AB48B"/>
<path d="M27.9625 17.5786C29.559 17.5786 30.8531 16.2845 30.8531 14.688C30.7114 10.8576 25.2109 10.8582 25.0707 14.688C25.0707 16.2845 26.366 17.5786 27.9625 17.5786Z" fill="#0AB48B"/>
<path d="M41.2346 17.5786C42.831 17.5786 44.1252 16.2845 44.1252 14.688C43.9835 10.8576 38.4833 10.8582 38.3428 14.688C38.3428 16.2845 39.6381 17.5786 41.2346 17.5786Z" fill="#0AB48B"/>
<path d="M97.2704 70.7847H14.6882C10.8835 70.9145 10.8355 76.4165 14.6882 76.5659H97.2704C101.075 76.4361 101.123 70.9344 97.2704 70.7847Z" fill="#0AB48B"/>
<path d="M14.6901 64.7681C16.2866 64.7681 17.5807 63.4739 17.5807 61.8774C17.4391 58.0471 11.9385 58.0477 11.7983 61.8774C11.7983 63.4739 13.0936 64.7681 14.6901 64.7681Z" fill="#0AB48B"/>
<path d="M27.9625 64.7681C29.559 64.7681 30.8531 63.4739 30.8531 61.8774C30.7114 58.0471 25.2109 58.0477 25.0707 61.8774C25.0707 63.4739 26.366 64.7681 27.9625 64.7681Z" fill="#0AB48B"/>
<path d="M41.2346 64.7681C42.831 64.7681 44.1252 63.4739 44.1252 61.8774C43.9835 58.0471 38.4833 58.0477 38.3428 61.8774C38.3428 63.4739 39.6381 64.7681 41.2346 64.7681Z" fill="#0AB48B"/>
<path d="M14.6881 123.756H90.5751C92.1713 123.756 93.4657 122.462 93.4657 120.865C93.4657 119.269 92.1713 117.975 90.5751 117.975H14.6881C10.8809 118.106 10.8375 123.607 14.6881 123.756V123.756Z" fill="#0AB48B"/>
<path d="M14.6901 111.958C16.2866 111.958 17.5807 110.664 17.5807 109.068C17.4391 105.237 11.9385 105.238 11.7983 109.068C11.7983 110.664 13.0936 111.958 14.6901 111.958Z" fill="#0AB48B"/>
<path d="M30.8531 109.068C30.8531 107.47 29.5575 106.176 27.9602 106.177C24.1301 106.319 24.1333 111.818 27.9625 111.958C29.559 111.958 30.8531 110.664 30.8531 109.068Z" fill="#0AB48B"/>
<path d="M44.1251 109.068C44.1251 107.471 42.8295 106.176 41.2324 106.177C37.402 106.319 37.4052 111.818 41.2344 111.958C42.8309 111.958 44.1251 110.664 44.1251 109.068Z" fill="#0AB48B"/>
<path fill-rule="evenodd" clip-rule="evenodd" d="M117.032 148C134.088 148 148 134.089 148 117.032C146.416 76.0096 87.6412 76.0206 86.0635 117.032C86.0635 134.089 99.9749 148 117.032 148V148Z" fill="#00837D"/>
<path d="M113.099 127.787C112.359 127.787 111.62 127.505 111.055 126.941L103.19 119.076C100.579 116.279 104.478 112.375 107.278 114.988L113.099 120.809L126.785 107.123C127.914 105.994 129.744 105.994 130.874 107.123C132.002 108.252 132.002 110.082 130.874 111.211L115.144 126.941C114.579 127.505 113.839 127.787 113.099 127.787V127.787Z" fill="white"/>
</svg>
