<svg width="148" height="148" viewBox="0 0 148 148" fill="none" xmlns="http://www.w3.org/2000/svg">
<path d="M73.9998 18.3979C38.1513 18.3979 8.98657 47.5627 8.98657 83.4112C12.2551 169.542 135.757 169.518 139.013 83.4103C139.013 47.5627 109.848 18.3979 73.9998 18.3979V18.3979ZM118.24 122.731C111.992 116.918 104.677 112.416 96.6554 109.433C97.8164 102.205 98.486 94.387 98.6153 86.3098H133.145C132.47 100.25 126.951 112.941 118.24 122.731V122.731ZM14.8545 86.3098H49.384C49.5136 94.387 50.183 102.205 51.344 109.433C43.3224 112.416 36.0073 116.918 29.7593 122.731C21.0483 112.941 15.53 100.25 14.8545 86.3098V86.3098ZM29.7599 44.091C36.0076 49.9042 43.3233 54.4064 51.3446 57.3894C50.1835 64.6167 49.5139 72.4348 49.3846 80.512H14.8548C15.53 66.5717 21.0486 53.8812 29.7599 44.091ZM73.9998 105.358C68.1898 105.358 62.4743 106.122 56.927 107.635C55.9005 100.962 55.3056 93.76 55.183 86.3101H92.8172C92.6946 93.7603 92.0994 100.962 91.0732 107.635C85.5256 106.122 79.8101 105.358 73.9998 105.358ZM90.0618 113.351C88.4262 123.118 81.7706 142.589 73.9995 142.316C66.2229 142.578 59.5783 123.13 57.9378 113.351C68.2145 110.431 79.7852 110.431 90.0618 113.351V113.351ZM55.1827 80.512C55.3053 73.0621 55.9005 65.8597 56.9267 59.1867C67.9747 62.221 80.0246 62.221 91.0726 59.1867C92.0991 65.8597 92.694 73.0621 92.8166 80.512H55.1827ZM73.9998 55.6663C68.4962 55.6663 63.1028 54.9181 57.9381 53.4707C59.574 43.7043 66.2293 24.2335 74.0001 24.5065C81.777 24.2442 88.4216 43.6915 90.0618 53.4707C84.8968 54.9184 79.5034 55.6663 73.9998 55.6663ZM92.0945 38.7822C90.1038 33.1227 87.7548 28.5746 85.147 25.2481C96.2223 27.3663 106.212 32.5797 114.179 39.9499C108.69 45.0264 102.396 48.9565 95.597 51.6168C94.64 46.9977 93.4677 42.6859 92.0945 38.7822V38.7822ZM55.9048 38.7822C54.5316 42.6862 53.3593 46.998 52.4024 51.6171C45.603 48.9568 39.3092 45.0267 33.8206 39.9502C41.7871 32.5797 51.7771 27.3666 62.8521 25.2484C60.2445 28.5746 57.8958 33.1224 55.9048 38.7822ZM52.4024 115.205C54.2661 124.348 57.7192 135.101 62.8523 141.574C51.7771 139.456 41.7871 134.242 33.8206 126.872C39.3089 121.795 45.603 117.865 52.4024 115.205ZM92.0945 128.04C93.4677 124.136 94.64 119.824 95.5973 115.205C102.397 117.865 108.691 121.795 114.179 126.872C106.212 134.243 96.2223 139.456 85.1473 141.574C87.7548 138.248 90.1038 133.7 92.0945 128.04V128.04ZM98.6153 80.512C98.4857 72.4348 97.8164 64.6164 96.6554 57.3891C104.677 54.4059 111.992 49.9039 118.24 44.0907C126.951 53.8809 132.47 66.5714 133.145 80.5117H98.6153V80.512Z" fill="#0AB48B"/>
<path fill-rule="evenodd" clip-rule="evenodd" d="M103.74 0C96.3893 0 90.4303 5.95929 90.4303 13.3103C90.4303 20.6814 99.1363 29.9121 103.74 35.193C108.344 29.9118 117.051 20.6811 117.051 13.3103C117.05 5.95929 111.091 0 103.74 0V0Z" fill="#00837D"/>
<path fill-rule="evenodd" clip-rule="evenodd" d="M48.1929 93.6941C40.8419 93.6941 34.8826 99.6531 34.8826 107.004C34.8826 114.375 43.5886 123.606 48.1929 128.887C52.7969 123.606 61.503 114.375 61.503 107.004C61.503 99.6534 55.544 93.6941 48.1929 93.6941Z" fill="#00837D"/>
<path fill-rule="evenodd" clip-rule="evenodd" d="M60.4258 38.804C53.0747 38.804 47.1157 44.7632 47.1157 52.114C47.1157 59.4848 55.8217 68.7158 60.4258 73.9967C65.0298 68.7155 73.7358 59.4848 73.7358 52.114C73.7361 44.7632 67.7768 38.804 60.4258 38.804V38.804Z" fill="#00837D"/>
<path fill-rule="evenodd" clip-rule="evenodd" d="M103.504 68.9963C96.153 68.9963 90.1937 74.9556 90.1937 82.3064C90.1937 89.6771 98.8997 98.9081 103.504 104.189C108.108 98.9081 116.814 89.6771 116.814 82.3064C116.814 74.9556 110.855 68.9963 103.504 68.9963V68.9963Z" fill="#00837D"/>
<path d="M103.742 16.2089C105.342 16.2089 106.64 14.9111 106.64 13.31C106.498 9.46865 100.982 9.46923 100.841 13.31C100.841 14.9111 102.14 16.2089 103.742 16.2089Z" fill="#0AB48B"/>
<path d="M48.1938 104.105C46.5921 104.104 45.2937 105.402 45.2937 107.004C45.436 110.844 50.9509 110.845 51.0927 107.004C51.0927 105.403 49.7948 104.105 48.1938 104.105Z" fill="#0AB48B"/>
<path d="M60.4269 49.2151C58.825 49.2136 57.5269 50.5121 57.5269 52.114C57.6692 55.9542 63.1841 55.9551 63.3258 52.114C63.3258 50.5129 62.028 49.2151 60.4269 49.2151Z" fill="#0AB48B"/>
<path d="M103.505 79.4077C101.903 79.4066 100.605 80.705 100.605 82.3066C100.747 86.1468 106.262 86.1477 106.404 82.3066C106.404 80.7056 105.106 79.4077 103.505 79.4077Z" fill="#0AB48B"/>
</svg>
